HIERARCHY
ROOT Hips
{
  OFFSET 19.804 22.561 -253.934
  CHANNELS 6 Xposition Yposition Zposition Zrotation Xrotation Yrotation
  JOINT LeftUpLeg
  {
    OFFSET 6.969 -5.191 4.155
    CHANNELS 6 Xposition Yposition Zposition Zrotation Xrotation Yrotation
    JOINT LeftLeg
    {
      OFFSET -0.000 -45.246 0.000
      CHANNELS 6 Xposition Yposition Zposition Zrotation Xrotation Yrotation
      JOINT LeftFoot
      {
        OFFSET -0.000 -37.172 -0.000
        CHANNELS 6 Xposition Yposition Zposition Zrotation Xrotation Yrotation
        End Site
        {
          OFFSET 0.000 -7.821 4.516
        }
      }
    }
  }
  JOINT RightUpLeg
  {
    OFFSET -6.845 -5.086 4.756
    CHANNELS 6 Xposition Yposition Zposition Zrotation Xrotation Yrotation
    JOINT RightLeg
    {
      OFFSET 0.000 -44.800 0.000
      CHANNELS 6 Xposition Yposition Zposition Zrotation Xrotation Yrotation
      JOINT RightFoot
      {
        OFFSET -0.000 -37.037 -0.000
        CHANNELS 6 Xposition Yposition Zposition Zrotation Xrotation Yrotation
        End Site
        {
          OFFSET 0.000 -7.876 4.547
        }
      }
    }
  }
  JOINT Spine
  {
    OFFSET 0.000 4.982 -4.982
    CHANNELS 6 Xposition Yposition Zposition Zrotation Xrotation Yrotation
    JOINT LeftShoulder
    {
      OFFSET -0.000 31.836 0.000
      CHANNELS 6 Xposition Yposition Zposition Zrotation Xrotation Yrotation
      JOINT LeftArm
      {
        OFFSET 16.079 0.000 -0.000
        CHANNELS 6 Xposition Yposition Zposition Zrotation Xrotation Yrotation
        JOINT LeftForeArm
        {
          OFFSET 21.175 0.000 0.000
          CHANNELS 6 Xposition Yposition Zposition Zrotation Xrotation Yrotation
          JOINT LeftHand
          {
            OFFSET 24.112 -0.000 -0.000
            CHANNELS 6 Xposition Yposition Zposition Zrotation Xrotation Yrotation
            JOINT LeftHandThumb1
            {
            OFFSET 4.970 -0.620 3.390
            CHANNELS 6 Xposition Yposition Zposition Zrotation Xrotation Yrotation
              JOINT LeftHandThumb2
              {
              OFFSET 2.150 -0.000 0.000
              CHANNELS 6 Xposition Yposition Zposition Zrotation Xrotation Yrotation
                JOINT LeftHandThumb3
                {
                OFFSET 2.200 -0.000 0.000
                CHANNELS 6 Xposition Yposition Zposition Zrotation Xrotation Yrotation
                  JOINT LeftHandThumb4
                  {
                  OFFSET 1.700 -0.000 0.000
                  CHANNELS 6 Xposition Yposition Zposition Zrotation Xrotation Yrotation
                  }
                }
              }
            }
            JOINT LeftHandIndex1
            {
            OFFSET 8.730 0.680 2.070
            CHANNELS 6 Xposition Yposition Zposition Zrotation Xrotation Yrotation
              JOINT LeftHandIndex2
              {
              OFFSET 2.670 -0.000 0.000
              CHANNELS 6 Xposition Yposition Zposition Zrotation Xrotation Yrotation
                JOINT LeftHandIndex3
                {
                OFFSET 2.130 -0.000 0.000
                CHANNELS 6 Xposition Yposition Zposition Zrotation Xrotation Yrotation
                  JOINT LeftHandIndex4
                  {
                  OFFSET 1.800 -0.000 0.000
                  CHANNELS 6 Xposition Yposition Zposition Zrotation Xrotation Yrotation
                  }
                }
              }
            }
            JOINT LeftHandMiddle1
            {
            OFFSET 9.220 0.670 0.550
            CHANNELS 6 Xposition Yposition Zposition Zrotation Xrotation Yrotation
              JOINT LeftHandMiddle2
              {
              OFFSET 2.660 -0.000 0.000
              CHANNELS 6 Xposition Yposition Zposition Zrotation Xrotation Yrotation
                JOINT LeftHandMiddle3
                {
                OFFSET 2.280 -0.000 0.000
                CHANNELS 6 Xposition Yposition Zposition Zrotation Xrotation Yrotation
                  JOINT LeftHandMiddle4
                  {
                  OFFSET 1.500 -0.000 0.000
                  CHANNELS 6 Xposition Yposition Zposition Zrotation Xrotation Yrotation
                  }
                }
              }
            }
            JOINT LeftHandRing1
            {
            OFFSET 9.250 0.670 -1.130
            CHANNELS 6 Xposition Yposition Zposition Zrotation Xrotation Yrotation
              JOINT LeftHandRing2
              {
              OFFSET 2.470 -0.000 0.000
              CHANNELS 6 Xposition Yposition Zposition Zrotation Xrotation Yrotation
                JOINT LeftHandRing3
                {
                OFFSET 2.210 -0.000 0.000
                CHANNELS 6 Xposition Yposition Zposition Zrotation Xrotation Yrotation
                  JOINT LeftHandRing4
                  {
                  OFFSET 1.800 -0.000 0.000
                  CHANNELS 6 Xposition Yposition Zposition Zrotation Xrotation Yrotation
                  }
                }
              }
            }
            JOINT LeftHandPinky1
            {
            OFFSET 9.350 0.660 -2.720
            CHANNELS 6 Xposition Yposition Zposition Zrotation Xrotation Yrotation
              JOINT LeftHandPinky2
              {
              OFFSET 1.630 -0.000 0.000
              CHANNELS 6 Xposition Yposition Zposition Zrotation Xrotation Yrotation
                JOINT LeftHandPinky3
                {
                OFFSET 1.710 -0.000 0.000
                CHANNELS 6 Xposition Yposition Zposition Zrotation Xrotation Yrotation
                  JOINT LeftHandPinky4
                  {
                  OFFSET 1.800 -0.000 0.000
                  CHANNELS 6 Xposition Yposition Zposition Zrotation Xrotation Yrotation
                  }
                }
              }
            }
          }
        }
      }
    }
    JOINT RightShoulder
    {
      OFFSET -0.000 31.836 0.000
      CHANNELS 6 Xposition Yposition Zposition Zrotation Xrotation Yrotation
      JOINT RightArm
      {
        OFFSET -17.283 0.000 -0.000
        CHANNELS 6 Xposition Yposition Zposition Zrotation Xrotation Yrotation
        JOINT RightForeArm
        {
          OFFSET -20.306 0.000 0.000
          CHANNELS 6 Xposition Yposition Zposition Zrotation Xrotation Yrotation
          JOINT RightHand
          {
            OFFSET -22.824 0.000 -0.000
            CHANNELS 6 Xposition Yposition Zposition Zrotation Xrotation Yrotation
            JOINT RightHandThumb1
            {
            OFFSET -4.970 -0.620 3.390
            CHANNELS 6 Xposition Yposition Zposition Zrotation Xrotation Yrotation
              JOINT RightHandThumb2
              {
              OFFSET -2.150 0.000 0.000
              CHANNELS 6 Xposition Yposition Zposition Zrotation Xrotation Yrotation
                JOINT RightHandThumb3
                {
                OFFSET -2.200 0.000 0.000
                CHANNELS 6 Xposition Yposition Zposition Zrotation Xrotation Yrotation
                  JOINT RightHandThumb4
                  {
                  OFFSET -1.700 0.000 0.000
                  CHANNELS 6 Xposition Yposition Zposition Zrotation Xrotation Yrotation
                  }
                }
              }
            }
            JOINT RightHandIndex1
            {
            OFFSET -8.730 0.680 2.070
            CHANNELS 6 Xposition Yposition Zposition Zrotation Xrotation Yrotation
              JOINT RightHandIndex2
              {
              OFFSET -2.670 0.000 0.000
              CHANNELS 6 Xposition Yposition Zposition Zrotation Xrotation Yrotation
                JOINT RightHandIndex3
                {
                OFFSET -2.130 0.000 0.000
                CHANNELS 6 Xposition Yposition Zposition Zrotation Xrotation Yrotation
                  JOINT RightHandIndex4
                  {
                  OFFSET -1.800 0.000 0.000
                  CHANNELS 6 Xposition Yposition Zposition Zrotation Xrotation Yrotation
                  }
                }
              }
            }
            JOINT RightHandMiddle1
            {
            OFFSET -9.220 0.670 0.550
            CHANNELS 6 Xposition Yposition Zposition Zrotation Xrotation Yrotation
              JOINT RightHandMiddle2
              {
              OFFSET -2.660 0.000 0.000
              CHANNELS 6 Xposition Yposition Zposition Zrotation Xrotation Yrotation
                JOINT RightHandMiddle3
                {
                OFFSET -2.280 0.000 0.000
                CHANNELS 6 Xposition Yposition Zposition Zrotation Xrotation Yrotation
                  JOINT RightHandMiddle4
                  {
                  OFFSET -1.500 0.000 0.000
                  CHANNELS 6 Xposition Yposition Zposition Zrotation Xrotation Yrotation
                  }
                }
              }
            }
            JOINT RightHandRing1
            {
            OFFSET -9.250 0.670 -1.130
            CHANNELS 6 Xposition Yposition Zposition Zrotation Xrotation Yrotation
              JOINT RightHandRing2
              {
              OFFSET -2.470 0.000 0.000
              CHANNELS 6 Xposition Yposition Zposition Zrotation Xrotation Yrotation
                JOINT RightHandRing3
                {
                OFFSET -2.210 0.000 0.000
                CHANNELS 6 Xposition Yposition Zposition Zrotation Xrotation Yrotation
                  JOINT RightHandRing4
                  {
                  OFFSET -1.800 0.000 0.000
                  CHANNELS 6 Xposition Yposition Zposition Zrotation Xrotation Yrotation
                  }
                }
              }
            }
            JOINT RightHandPinky1
            {
            OFFSET -9.350 0.660 -2.720
            CHANNELS 6 Xposition Yposition Zposition Zrotation Xrotation Yrotation
              JOINT RightHandPinky2
              {
              OFFSET -1.630 0.000 0.000
              CHANNELS 6 Xposition Yposition Zposition Zrotation Xrotation Yrotation
                JOINT RightHandPinky3
                {
                OFFSET -1.710 0.000 0.000
                CHANNELS 6 Xposition Yposition Zposition Zrotation Xrotation Yrotation
                  JOINT RightHandPinky4
                  {
                  OFFSET -1.800 0.000 0.000
                  CHANNELS 6 Xposition Yposition Zposition Zrotation Xrotation Yrotation
                  }
                }
              }
            }
          }
        }
      }
    }
    JOINT Neck
    {
      OFFSET -0.000 31.836 0.000
      CHANNELS 6 Xposition Yposition Zposition Zrotation Xrotation Yrotation
      JOINT Head
      {
        OFFSET -0.000 20.901 -0.000
        CHANNELS 6 Xposition Yposition Zposition Zrotation Xrotation Yrotation
        End Site
        {
          OFFSET -0.000 0.084 -0.000
        }
      }
    }
  }
}
MOTION
Frames:	4
Frame Time:	0.0333333
21.925 23.3422 -252.934 7.56383 41.4337 -17.0008 7.07064 -4.84262 4.93343 8.10233 -47.7861 3.24365 1.49012e-05 -46.3039 -2.38419e-05 -3.83166 9.38504 0.625728 -2.98023e-06 -37.6196 0 2.43364 -10.9806 1.77022 -6.88 -5.27984 4.41337 6.00571 -64.9758 0.277071 -5.96046e-06 -43.5606 -2.38419e-05 0.24561 33.6211 -3.07586e-06 5.96046e-06 -33.7766 -2.38419e-05 -9.16957 -25.6438 -9.01221 8.9407e-06 4.9431 -4.94304 0.621368 -39.8063 0.400262 2.98023e-06 31.8366 0 -24.0801 1.62217e-05 5.45919 16.6146 -5.96046e-06 2.38419e-05 -42.2995 36.6318 8.16901 21.3179 0 4.76837e-05 -5.65654e-05 1.09858e-05 -107.782 23.2306 -2.38419e-05 1.19209e-05 -5.24214 -0.318546 2.21233 0.0062 0.0497 0.0339 -45 0 0 0 0.0215 0 0 -45 0 0 0.022 0 0 -45 0 0 0.017 0 0 0 0 -0.0068 0.0873 0.0207 -45 0 0 0 0.0267 0 -80 0 0 0 0.0213 0 -90 0 0 0 0.018 0 0 0 0 -0.0067 0.0922 0.0055 -45 0 0 0 0.0266 0 -80 0 0 0 0.0228 0 -90 0 0 0 0.015 0 0 0 0 -0.0067 0.0925 -0.0113 -45 0 0 0 0.0247 0 -80 0 0 0 0.0221 0 -90 0 0 0 0.018 0 0 0 0 -0.0066 0.0935 -0.0272 -45 0 0 0 0.0163 0 -80 0 0 0 0.0171 0 -90 0 0 0 0.018 0 0 0 0 2.98023e-06 31.8366 0 23.1813 6.4033e-07 -5.45965 -16.6132 0 0 56.013 36.6699 -16.1934 -19.823 -5.96046e-06 2.38419e-05 -6.85522e-05 6.73006e-06 94.2594 -25.5953 -5.96046e-06 -1.19209e-05 -36.7285 1.53657 -28.1859 -0.0062 0.0497 0.0339 45 0 0 0 0.0215 0 0 -45 0 0 0.022 0 0 -45 0 0 0.017 0 0 0 0 0.0068 0.0873 0.0207 45 0 0 0 0.0267 0 80 0 0 0 0.0213 0 90 0 0 0 0.018 0 0 0 0 0.0067 0.0922 0.0055 45 0 0 0 0.0266 0 80 0 0 0 0.0228 0 90 0 0 0 0.015 0 0 0 0 0.0067 0.0925 -0.0113 45 0 0 0 0.0247 0 80 0 0 0 0.0221 0 90 0 0 0 0.018 0 0 0 0 0.0066 0.0935 -0.0272 45 0 0 0 0.0163 0 80 0 0 0 0.0171 0 90 0 0 0 0.018 0 0 0 0 2.98023e-06 31.8366 0 7.72718 -1.37983 0.18721 -5.96046e-06 20.5452 -2.38419e-05 8.83122e-06 -1.01386e-05 0 
21.9382 24.0114 -252.91 7.60356 41.9646 -17.384 7.0728 -4.81613 4.91496 8.39853 -47.2226 3.41026 8.9407e-06 -46.7367 0 -3.78307 9.37837 0.61733 -1.49012e-05 -36.5839 -2.38419e-05 2.751 -13.6734 2.11211 -6.86082 -5.30362 4.45242 5.13559 -65.9088 -0.082217 -1.19209e-05 -44.7604 0 2.27683 22.2716 7.38082e-06 5.96046e-06 -32.6228 -2.38419e-05 -8.28722 -20.2063 -7.75317 -1.19209e-05 4.91241 -4.91233 0.69205 -39.9412 0.446338 1.19209e-05 31.8366 -2.38419e-05 -23.7991 1.28066e-05 5.90985 16.6134 -8.9407e-06 2.38419e-05 -42.2239 36.7188 7.77635 21.217 2.38419e-05 2.38419e-05 3.8858e-05 -1.43612e-05 -106.819 23.0367 1.19209e-05 -1.19209e-05 -2.67721 -0.0882355 -3.12878 0.0062 0.0497 0.0339 -45 0 0 0 0.0215 0 0 -45 0 0 0.022 0 0 -45 0 0 0.017 0 0 0 0 -0.0068 0.0873 0.0207 -45 0 0 0 0.0267 0 -80 0 0 0 0.0213 0 -90 0 0 0 0.018 0 0 0 0 -0.0067 0.0922 0.0055 -45 0 0 0 0.0266 0 -80 0 0 0 0.0228 0 -90 0 0 0 0.015 0 0 0 0 -0.0067 0.0925 -0.0113 -45 0 0 0 0.0247 0 -80 0 0 0 0.0221 0 -90 0 0 0 0.018 0 0 0 0 -0.0066 0.0935 -0.0272 -45 0 0 0 0.0163 0 -80 0 0 0 0.0171 0 -90 0 0 0 0.018 0 0 0 0 1.19209e-05 31.8366 -2.38419e-05 22.7919 -4.9092e-06 -5.91181 -16.6079 1.19209e-05 -4.76837e-05 56.217 37.486 -15.3166 -19.8728 0 0 -2.18511e-07 7.17585e-06 93.4884 -25.6589 0 5.96046e-06 -37.6592 1.29889 -29.4249 -0.0062 0.0497 0.0339 45 0 0 0 0.0215 0 0 -45 0 0 0.022 0 0 -45 0 0 0.017 0 0 0 0 0.0068 0.0873 0.0207 45 0 0 0 0.0267 0 80 0 0 0 0.0213 0 90 0 0 0 0.018 0 0 0 0 0.0067 0.0922 0.0055 45 0 0 0 0.0266 0 80 0 0 0 0.0228 0 90 0 0 0 0.015 0 0 0 0 0.0067 0.0925 -0.0113 45 0 0 0 0.0247 0 80 0 0 0 0.0221 0 90 0 0 0 0.018 0 0 0 0 0.0066 0.0935 -0.0272 45 0 0 0 0.0163 0 80 0 0 0 0.0171 0 90 0 0 0 0.018 0 0 0 0 1.19209e-05 31.8366 -2.38419e-05 8.10451 -2.09815 0.298714 -2.98023e-06 20.5131 -2.38419e-05 1.06855e-05 -1.01919e-05 -8.53774e-07 
21.9457 24.4999 -252.892 7.70257 42.5313 -17.7408 7.07395 -4.79492 4.90344 8.65113 -46.8526 3.64352 -5.96046e-06 -47.1223 -2.38419e-05 -4.17858 10.0276 0.728834 -1.19209e-05 -37.6701 -7.15256e-05 2.92219 -14.4089 2.29008 -6.8467 -5.3031 4.49413 4.5736 -66.5887 0.304514 -5.96046e-06 -45.5339 0 2.92095 13.4721 2.63379e-06 -1.19209e-05 -32.3878 4.76837e-05 -7.858 -16.0846 -6.96275 5.96046e-06 4.89162 -4.89159 0.753162 -40.1416 0.475396 0 31.8366 0 -23.7997 1.19528e-05 6.36482 16.6455 -1.19209e-05 2.38419e-05 -41.7203 36.8085 7.43123 21.1273 -3.57628e-05 -2.38419e-05 -5.68175e-05 1.01665e-05 -106.417 22.9219 0 -2.98023e-06 -2.48469 -0.0402385 -5.70244 0.0062 0.0497 0.0339 -36.3839 0 0 0 0.0215 0 0 -36.3839 0 0 0.022 0 0 -36.3839 0 0 0.017 0 0 0 0 -0.0068 0.0873 0.0207 -36.3839 0 0 0 0.0267 0 -64.6824 0 0 0 0.0213 0 -72.7677 0 0 0 0.018 0 0 0 0 -0.0067 0.0922 0.0055 -36.3839 0 0 0 0.0266 0 -64.6824 0 0 0 0.0228 0 -72.7677 0 0 0 0.015 0 0 0 0 -0.0067 0.0925 -0.0113 -36.3839 0 0 0 0.0247 0 -64.6824 0 0 0 0.0221 0 -72.7677 0 0 0 0.018 0 0 0 0 -0.0066 0.0935 -0.0272 -36.3839 0 0 0 0.0163 0 -64.6824 0 0 0 0.0171 0 -72.7677 0 0 0 0.018 0 0 0 0 0 31.8366 0 22.4736 -2.98821e-06 -6.38156 -16.6021 -5.96046e-06 2.38419e-05 56.0668 38.3556 -14.3886 -19.9032 0 -2.38419e-05 0.000177246 1.38114e-05 92.8087 -25.7307 -5.96046e-06 -5.96046e-06 -38.1892 1.10459 -30.6367 -0.0062 0.0497 0.0339 45 0 0 0 0.0215 0 0 -45 0 0 0.022 0 0 -45 0 0 0.017 0 0 0 0 0.0068 0.0873 0.0207 45 0 0 0 0.0267 0 80 0 0 0 0.0213 0 90 0 0 0 0.018 0 0 0 0 0.0067 0.0922 0.0055 45 0 0 0 0.0266 0 80 0 0 0 0.0228 0 90 0 0 0 0.015 0 0 0 0 0.0067 0.0925 -0.0113 45 0 0 0 0.0247 0 80 0 0 0 0.0221 0 90 0 0 0 0.018 0 0 0 0 0.0066 0.0935 -0.0272 45 0 0 0 0.0163 0 80 0 0 0 0.0171 0 90 0 0 0 0.018 0 0 0 0 0 31.8366 0 8.38549 -2.80968 0.413997 -8.9407e-06 20.4663 0 1.02453e-05 -1.01386e-05 0 
21.9441 24.5963 -252.856 7.5014 43.2149 -17.574 7.06643 -4.78717 4.90273 8.66528 -46.5047 3.80075 2.98023e-06 -47.4996 -9.53674e-05 -4.44442 10.3378 0.799108 0 -38.1971 0 3.23698 -14.8046 2.5692 -6.83525 -5.29158 4.55463 3.7836 -67.3017 1.02032 0 -45.84 0 2.8246 6.96892 -0.342988 0 -32.4793 2.38419e-05 -7.52042 -12.1287 -6.25272 -5.96046e-06 4.86405 -4.86408 0.755377 -40.4 0.46581 -5.96046e-06 31.8366 2.38419e-05 -23.7282 1.36604e-05 7.0053 16.7361 5.96046e-06 0 -40.6558 37.4849 6.24462 20.8641 -3.57628e-05 -2.38419e-05 -3.11831e-05 -1.46784e-06 -107.04 23.4326 2.38419e-05 -1.78814e-05 -3.70424 0.00175205 -5.87425 0.0062 0.0497 0.0339 -26.0519 0 0 0 0.0215 0 0 -26.0519 0 0 0.022 0 0 -26.0519 0 0 0.017 0 0 0 0 -0.0068 0.0873 0.0207 -26.0519 0 0 0 0.0267 0 -46.3145 0 0 0 0.0213 0 -52.1039 0 0 0 0.018 0 0 0 0 -0.0067 0.0922 0.0055 -26.0519 0 0 0 0.0266 0 -46.3145 0 0 0 0.0228 0 -52.1039 0 0 0 0.015 0 0 0 0 -0.0067 0.0925 -0.0113 -26.0519 0 0 0 0.0247 0 -46.3145 0 0 0 0.0221 0 -52.1039 0 0 0 0.018 0 0 0 0 -0.0066 0.0935 -0.0272 -26.0519 0 0 0 0.0163 0 -46.3145 0 0 0 0.0171 0 -52.1039 0 0 0 0.018 0 0 0 0 -5.96046e-06 31.8366 2.38419e-05 22.2167 -2.13443e-06 -7.07144 -16.5804 0 2.38419e-05 54.9813 38.7081 -13.0427 -19.886 -2.38419e-05 0 -0.000109337 3.34952e-06 91.8408 -24.7028 -5.96046e-06 -2.38419e-05 -35.4338 0.847808 -30.0107 -0.0062 0.0497 0.0339 45 0 0 0 0.0215 0 0 -45 0 0 0.022 0 0 -45 0 0 0.017 0 0 0 0 0.0068 0.0873 0.0207 45 0 0 0 0.0267 0 80 0 0 0 0.0213 0 90 0 0 0 0.018 0 0 0 0 0.0067 0.0922 0.0055 45 0 0 0 0.0266 0 80 0 0 0 0.0228 0 90 0 0 0 0.015 0 0 0 0 0.0067 0.0925 -0.0113 45 0 0 0 0.0247 0 80 0 0 0 0.0221 0 90 0 0 0 0.018 0 0 0 0 0.0066 0.0935 -0.0272 45 0 0 0 0.0163 0 80 0 0 0 0.0171 0 90 0 0 0 0.018 0 0 0 0 -5.96046e-06 31.8366 2.38419e-05 8.34242 -3.64625 0.534315 -5.96046e-06 20.425 0 1.08323e-05 -1.01386e-05 0 
